<?xml version="1.0" standalone="no"?>
<!DOCTYPE svg PUBLIC "-//W3C//DTD SVG 20010904//EN"
        "http://www.w3.org/TR/2001/REC-SVG-20010904/DTD/svg10.dtd">
<svg version="1.0" xmlns="http://www.w3.org/2000/svg" width="550.000000pt" height="550.000000pt"
     viewBox="0 0 550.000000 550.000000" preserveAspectRatio="xMidYMid meet">
    <g transform="translate(0.000000,550.000000) scale(0.100000,-0.100000)" fill="#FFFFFF" stroke="none">
        <path d="M198 4763 c-10 -2 -21 -15 -24 -28 -12 -47 15 -457 35 -541 48 -196 139 -325 299 -424 114 -70 116 -70 683 -70 l509 0 0 -1467 c0 -886 4 -1474 10 -1483 7 -12 36 -14 157 -12 382 7 561 53 706 183 97 86 164 215 186 356 8 50 11 431 11 1240 -1 1141 -8 1577 -30 1698 -51 280 -199 457 -445 531 -56 17 -130 18 -1070 20 -556 1 -1018 0 -1027 -3z"/>
        <path d="M4065 4740 c-36 -18 -98 -107 -629 -907 -369 -555 -596 -907 -609 -942 -27 -72 -29 -218 -5 -273 9 -20 285 -444 613 -942 575 -872 599 -906 639 -921 36 -13 118 -15 646 -13 562 3 605 4 608 20 3 16 -411 652 -1046 1605 l-254 383 33 52 c18 29 306 465 639 968 334 503 612 925 618 937 7 12 9 29 6 37 -6 14 -70 16 -613 16 -586 0 -607 -1 -646 -20z"/>
    </g>
</svg>
