<?xml version="1.0" encoding="UTF-8"?>
<!DOCTYPE svg PUBLIC "-//W3C//DTD SVG 1.1//EN" "http://www.w3.org/Graphics/SVG/1.1/DTD/svg11.dtd">
<svg xmlns="http://www.w3.org/2000/svg" version="1.1" width="550px" height="550px"  xmlns:xlink="http://www.w3.org/1999/xlink">
    <g><path fill="#ec1d31" d="M 43.5,72.5 C 35.7928,82.4349 31.2928,93.7682 30,106.5C 26.2934,130.375 32.7934,150.875 49.5,168C 54.0026,171.755 59.0026,174.755 64.5,177C 60.7591,176.702 57.0924,175.869 53.5,174.5C 38.6977,167.861 28.531,156.861 23,141.5C 20.7058,134.99 19.0392,128.323 18,121.5C 17.0224,107.001 16.1891,92.5012 15.5,78C 15.4841,75.6948 16.4841,74.0282 18.5,73C 26.8267,72.5003 35.16,72.3336 43.5,72.5 Z"/></g>
    <g><path fill="#ec1b30" d="M 43.5,72.5 C 103.168,72.3333 162.834,72.5 222.5,73C 245.811,76.648 261.645,89.4814 270,111.5C 272.559,118.628 274.226,125.962 275,133.5C 276.104,147.813 276.604,162.146 276.5,176.5C 275.662,176.842 275.328,177.508 275.5,178.5C 240.543,179.487 205.543,179.82 170.5,179.5C 169.833,179.5 169.167,179.5 168.5,179.5C 133.165,179.667 97.8318,179.5 62.5,179C 58.6749,178.978 55.6749,177.478 53.5,174.5C 57.0924,175.869 60.7591,176.702 64.5,177C 59.0026,174.755 54.0026,171.755 49.5,168C 32.7934,150.875 26.2934,130.375 30,106.5C 31.2928,93.7682 35.7928,82.4349 43.5,72.5 Z"/></g>
    <g><path fill="#1e4da1" d="M 418.5,249.5 C 410.926,251.586 403.926,250.42 397.5,246C 394.035,243.537 390.869,240.704 388,237.5C 382.333,229.833 376.667,222.167 371,214.5C 358.989,202.777 344.823,197.777 328.5,199.5C 324.182,199.827 320.516,201.494 317.5,204.5C 344.815,161.881 372.649,119.548 401,77.5C 404.049,75.0362 407.549,73.5362 411.5,73C 451.167,72.3333 490.833,72.3333 530.5,73C 532.897,75.581 533.063,78.4143 531,81.5C 493.725,137.738 456.225,193.738 418.5,249.5 Z"/></g>
    <g><path fill="#c32026" d="M 275.5,178.5 C 275.666,185.841 275.5,193.174 275,200.5C 273.167,197.333 270.667,194.833 267.5,193C 253.703,187.506 239.37,184.173 224.5,183C 206.374,181.329 188.374,180.162 170.5,179.5C 205.543,179.82 240.543,179.487 275.5,178.5 Z"/></g>
    <g><path fill="#da1f2c" d="M 276.5,176.5 C 276.986,260.536 276.486,344.536 275,428.5C 267.137,454.691 249.637,469.858 222.5,474C 205.218,476.047 187.885,476.714 170.5,476C 169.809,474.933 169.309,473.766 169,472.5C 168.5,374.834 168.333,277.167 168.5,179.5C 169.167,179.5 169.833,179.5 170.5,179.5C 188.374,180.162 206.374,181.329 224.5,183C 239.37,184.173 253.703,187.506 267.5,193C 270.667,194.833 273.167,197.333 275,200.5C 275.5,193.174 275.666,185.841 275.5,178.5C 275.328,177.508 275.662,176.842 276.5,176.5 Z"/></g>
    <g><path fill="#1c4690" d="M 328.5,199.5 C 344.823,197.777 358.989,202.777 371,214.5C 376.667,222.167 382.333,229.833 388,237.5C 390.869,240.704 394.035,243.537 397.5,246C 403.926,250.42 410.926,251.586 418.5,249.5C 413.752,257.999 408.752,266.332 403.5,274.5C 400.466,271.495 397.632,268.162 395,264.5C 384.724,248.559 374.058,232.893 363,217.5C 353.39,207.945 341.89,201.945 328.5,199.5 Z"/></g>
    <g><path fill="#0e3780" d="M 328.5,199.5 C 341.89,201.945 353.39,207.945 363,217.5C 374.058,232.893 384.724,248.559 395,264.5C 397.632,268.162 400.466,271.495 403.5,274.5C 445.979,338.776 488.479,403.11 531,467.5C 533.063,470.586 532.897,473.419 530.5,476C 490.833,476.667 451.167,476.667 411.5,476C 407.825,475.443 404.492,474.11 401.5,472C 360.699,410.894 320.532,349.394 281,287.5C 278.079,277.807 278.413,268.14 282,258.5C 293.303,240.053 305.137,222.053 317.5,204.5C 320.516,201.494 324.182,199.827 328.5,199.5 Z"/></g>
</svg>
