<?xml version="1.0" encoding="UTF-8" standalone="no"?>
<!DOCTYPE svg PUBLIC "-//W3C//DTD SVG 1.1//EN" "http://www.w3.org/Graphics/SVG/1.1/DTD/svg11.dtd">
<svg version="1.1" id="Vrstva_1" xmlns="http://www.w3.org/2000/svg" xmlns:xlink="http://www.w3.org/1999/xlink" x="0px"
     y="0px"
     width="210px" height="59.99px" viewBox="0 0 210 59.99" enable-background="new 0 0 210 59.99" xml:space="preserve">
<path fill="#A7C721" d="M72.889,44.85c0,2.02-0.694,3.695-2.084,5.023c-1.391,1.332-3.102,1.998-5.134,1.998
	c-2.941,0-5.289-1.127-7.044-3.379l1.931-2.195c1.565,1.77,3.225,2.654,4.981,2.654c1.155,0,2.183-0.375,3.082-1.129
	c0.9-0.754,1.349-1.701,1.349-2.84c0-1.156-0.534-2.172-1.602-3.051c-0.526-0.439-1.565-1.053-3.116-1.844
	c-1.769-0.906-3.064-1.805-3.883-2.699c-1.111-1.199-1.667-2.633-1.667-4.299c0-1.857,0.625-3.375,1.877-4.554
	c1.25-1.177,2.805-1.766,4.662-1.766c2.194,0,4.403,1.074,6.626,3.226l-1.975,2.041c-1.638-1.596-3.239-2.392-4.805-2.392
	c-0.95,0-1.792,0.314-2.523,0.944c-0.731,0.628-1.096,1.411-1.096,2.347c0,1.578,1.521,3.16,4.563,4.74
	c1.872,0.965,3.231,1.887,4.08,2.764C72.296,41.668,72.889,43.139,72.889,44.85z"/>
    <path fill="#A7C721" d="M97.325,51.256h-3.073V39.869c0-2.75-0.11-4.586-0.329-5.508c-0.761-3.174-2.765-4.761-6.011-4.761
	c-1.857,0-3.522,0.612-4.992,1.832c-1.47,1.223-2.439,2.748-2.907,4.574c-0.294,1.143-0.439,3.307-0.439,6.496v8.754h-3.072V18.169
	h3.072v13.495c2.472-3.263,5.456-4.894,8.952-4.894c1.742,0,3.31,0.441,4.707,1.327s2.428,2.104,3.094,3.653
	c0.666,1.551,1,3.959,1,7.219V51.256z"/>
    <path fill="#A7C721" d="M122.674,39.451c0-2.633-0.896-4.902-2.688-6.811c-1.791-1.91-3.996-2.864-6.615-2.864
	s-4.824,0.954-6.615,2.864c-1.792,1.908-2.688,4.178-2.688,6.811c0,1.697,0.401,3.285,1.207,4.764c0.833,1.52,1.968,2.691,3.4,3.51
	c1.434,0.82,2.998,1.227,4.695,1.227c3.628,0,6.313-1.557,8.053-4.672C122.256,42.787,122.674,41.178,122.674,39.451z
	 M125.79,39.387c0,3.51-1.193,6.469-3.577,8.875c-2.386,2.406-5.333,3.609-8.843,3.609s-6.462-1.199-8.854-3.6
	c-2.391-2.396-3.588-5.361-3.588-8.885c0-3.307,1.098-6.174,3.293-8.601c2.413-2.677,5.463-4.015,9.148-4.015
	c3.672,0,6.714,1.332,9.127,3.993C124.691,33.191,125.79,36.066,125.79,39.387z"/>
    <path fill="#A7C721" d="M151.47,39.363c0-1.695-0.424-3.307-1.271-4.826c-0.85-1.521-2.001-2.703-3.457-3.543
	c-1.455-0.841-3.037-1.262-4.749-1.262c-2.72,0-4.977,0.936-6.769,2.809c-1.793,1.871-2.689,4.176-2.689,6.91
	c0,3.805,1.574,6.584,4.719,8.338c1.506,0.85,3.102,1.273,4.782,1.273c1.697,0,3.278-0.439,4.739-1.316
	c1.42-0.863,2.557-2.057,3.412-3.576C151.043,42.648,151.47,41.047,151.47,39.363z M154.563,39.256c0,3.48-1.169,6.441-3.51,8.885
	c-2.371,2.486-5.279,3.73-8.732,3.73c-3.788,0-6.978-1.572-9.566-4.717v12.834h-3.05V27.384h3.05v4.39
	c2.429-3.336,5.588-5.003,9.479-5.003c3.438,0,6.352,1.222,8.742,3.665C153.369,32.877,154.563,35.818,154.563,39.256z"/>
    <polygon fill="#6C963D" points="169.241,30.019 164.37,30.019 164.37,51.256 161.276,51.256 161.276,30.019 157.085,30.019
	157.085,27.384 161.276,27.384 161.276,18.521 164.37,18.521 164.37,27.384 169.241,27.384 "/>
    <path fill="#6C963D" d="M192.089,36.906c-0.76-3.027-2.393-5.125-4.893-6.297c-1.289-0.599-2.641-0.899-4.059-0.899
	c-2.342,0-4.354,0.753-6.033,2.259c-1.23,1.1-2.16,2.746-2.789,4.938H192.089z M195.466,39.563h-21.457
	c0.059,2.676,0.893,4.908,2.502,6.691c1.697,1.871,3.861,2.809,6.494,2.809c2.545,0,4.703-0.775,6.473-2.324
	c0.805-0.703,1.676-1.838,2.611-3.402l2.588,1.359c-1.607,3.146-3.838,5.268-6.691,6.363c-1.391,0.543-2.961,0.813-4.717,0.813
	c-3.584,0-6.549-1.186-8.898-3.555c-2.346-2.369-3.521-5.348-3.521-8.93c0-3.027,0.93-5.727,2.787-8.098
	c2.355-3.012,5.508-4.519,9.455-4.519c4.068,0,7.316,1.543,9.744,4.628C194.562,33.594,195.438,36.314,195.466,39.563z"/>
    <polygon fill="#6C963D" points="209.997,30.019 205.126,30.019 205.126,51.256 202.032,51.256 202.032,30.019 197.843,30.019
	197.843,27.384 202.032,27.384 202.032,18.521 205.126,18.521 205.126,27.384 209.997,27.384 "/>
    <rect y="27.031" fill="#A7C721" width="25.363" height="25.363"/>
    <rect x="27.032" y="27.031" fill="#14B1EF" width="25.363" height="25.363"/>
    <rect x="13.349" fill="#F7A12B" width="25.363" height="25.363"/>
</svg>
